<svg version="1.2" xmlns="http://www.w3.org/2000/svg" viewBox="2.63 2.08 33.18 24.83">
  <style>
    .s0 { fill: #2f6afe }
  </style>
  <g id="Layer 1">
    <path fill-rule="evenodd" class="s0" d="m20.84 12.5v14.17h-3.9v-14.17l0.22 0.02q0.78 0.08 1.56 0.09h0.22 0.15q0.83-0.01 1.75-0.11z"/>
    <path fill-rule="evenodd" class="s0" d="m6.55 4.43v10.14q1.22-2.19 3.79-2.3 5.25 0.34 5.69 6.91-0.11 3.57-1.67 5.64-1.9 2.08-4.8 2.08-2.68-0.12-3.91-1.85-1.26 0.65-2.32 1.51l-0.13 0.11h-0.56v-22.24q0.31 0 0.93 0.11l0.07 0.01h0.9q0.31 0 0.93-0.1l0.07-0.02zm2.68 9.68q-2.68 0-2.68 5.65-0.11 5.99 2.57 5.98 2.56-0.11 2.68-6.1 0.11-5.53-2.57-5.53z"/>
    <path fill-rule="evenodd" class="s0" d="m28.78 12.27h0.13q6.68 0.3 6.9 7.02-0.34 7.38-7.03 7.61-6.81-0.23-7.04-6.92 0.34-7.37 7.04-7.71zm0.11 1.26h-0.06q-2.85 0.07-2.84 6.34-0.01 5.82 2.73 5.87h0.06 0.05q2.63-0.18 2.74-6.91 0-5.29-2.68-5.3z"/>
    <path fill-rule="evenodd" class="s0" d="m14.23 4.2c4.61 0.15 6.38 3.6 6.02 6.52-5.08 0.45-6.36-3.49-6.02-6.52z"/>
    <path fill-rule="evenodd" class="s0" d="m23.3 5.72c0.22 1.82-0.6 3.9-2.72 4.78 0.07-1.27-0.2-2.58-0.86-3.74 0.76-0.74 1.91-1.19 3.58-1.04z"/>
    <path fill-rule="evenodd" class="s0" d="m31.42 5.37c-0.84 1.03-2.5 1.49-3.98-0.04 0.88-1.06 2.54-1.84 3.98 0.04z"/>
    <path fill-rule="evenodd" class="s0" d="m27.02 3.03c-0.77 1.61-2.79 2.75-5.18 1.24 0.81-1.66 2.73-3.22 5.18-1.24z"/>
    <path fill-rule="evenodd" class="s0" d="m34.68 2.92c-0.27 0.77-1.13 1.39-2.29 0.82 0.29-0.79 1.1-1.6 2.29-0.82z"/>
  </g>
</svg>
