<?xml version="1.0" encoding="UTF-8"?>
<!DOCTYPE svg PUBLIC "-//W3C//DTD SVG 1.1//EN" "http://www.w3.org/Graphics/SVG/1.1/DTD/svg11.dtd">
<svg version="1.1" id="Layer_1" xmlns="http://www.w3.org/2000/svg" xmlns:xlink="http://www.w3.org/1999/xlink" x="0px" y="0px" enable-background="new 0 0 123.1 43.691" xml:space="preserve" viewBox="50.48 0 39.53 43.7">
  <g>
    <g>
      <path fill="#231F1F" d="M50.487,2.04v29.034c0,0,11.162-1.299,11.162,9.604V13.201C61.649,2.818,50.487,2.04,50.487,2.04"/>
      <path fill="#AAAAAA" d="M55.715,0v25.547c0,0,6.162,1.189,6.162,12.091c0,10.903,0.031-20.283,0.031-26.124    C61.909,1.132,55.715,0,55.715,0"/>
    </g>
    <path fill="#3978AD" d="M62.077,12.941v26.422c0,0,5.359-15.01,27.887,4.328c0-7.008,0.043-24.683,0.043-30.525   C67.739-3.057,62.077,12.941,62.077,12.941"/>
    <polygon fill="#FFFFFF" points="64.2,32.718 69.192,32.718 70.805,21.607 70.856,21.607 75.286,32.718 77.284,32.718    81.918,21.607 81.969,21.607 83.377,32.718 88.399,32.718 85.477,13.419 80.485,13.419 76.336,23.733 72.418,13.419 67.477,13.419     "/>
  </g>
</svg>
